<mxfile host="app.diagrams.net" modified="2024-02-06T18:23:56.367Z" agent="Mozilla/5.0 (X11; Linux x86_64) AppleWebKit/537.36 (KHTML, like Gecko) Chrome/121.0.0.0 Safari/537.36" etag="unzLWGDeWAWlZCqaoFtU" version="23.1.1" type="device">
  <diagram name="Page-1" id="gf7WvVB2u6d4l5ZcaxYx">
    <mxGraphModel dx="2062" dy="1182" grid="1" gridSize="10" guides="1" tooltips="1" connect="1" arrows="1" fold="1" page="1" pageScale="1" pageWidth="850" pageHeight="1100" math="0" shadow="0">
      <root>
        <mxCell id="0" />
        <mxCell id="1" parent="0" />
        <mxCell id="6EBNCYEFULhQae5MWOHI-1" value="" style="rounded=0;whiteSpace=wrap;html=1;" vertex="1" parent="1">
          <mxGeometry x="10" y="10" width="190" height="240" as="geometry" />
        </mxCell>
        <mxCell id="6EBNCYEFULhQae5MWOHI-5" value="???: 0x400020" style="rounded=0;whiteSpace=wrap;html=1;" vertex="1" parent="1">
          <mxGeometry x="10" y="10" width="190" height="40" as="geometry" />
        </mxCell>
      </root>
    </mxGraphModel>
  </diagram>
</mxfile>
